<?xml version="1.0" encoding="UTF-8" standalone="no"?>
<!DOCTYPE svg PUBLIC "-//W3C//DTD SVG 1.1//EN"
 "http://www.w3.org/Graphics/SVG/1.1/DTD/svg11.dtd">
<!-- Generated by graphviz version 2.43.0 (0)
 -->
<!-- Title: judge Pages: 1 -->
<svg width="636pt" height="146pt"
 viewBox="0.00 0.00 636.00 146.00" xmlns="http://www.w3.org/2000/svg" xmlns:xlink="http://www.w3.org/1999/xlink">
<g id="graph0" class="graph" transform="scale(1 1) rotate(0) translate(4 142)">
<title>judge</title>
<!-- w -->
<g id="node1" class="node">
<title>w</title>
<path fill="#d97706" stroke="transparent" d="M95,-93C95,-93 12,-93 12,-93 6,-93 0,-87 0,-81 0,-81 0,-54 0,-54 0,-48 6,-42 12,-42 12,-42 95,-42 95,-42 101,-42 107,-48 107,-54 107,-54 107,-81 107,-81 107,-87 101,-93 95,-93"/>
<text text-anchor="start" x="21.5" y="-72.1" font-family="Helvetica,sans-Serif" font-weight="bold" font-size="13.00" fill="#ffffff">AI writes</text>
<text text-anchor="start" x="15.5" y="-55.5" font-family="Helvetica,sans-Serif" font-size="10.00" fill="#ffffff">the explanation</text>
</g>
<!-- chk -->
<g id="node2" class="node">
<title>chk</title>
<polygon fill="#fef3c7" stroke="transparent" points="285,-109.5 148,-67.5 285,-25.5 422,-67.5 285,-109.5"/>
<text text-anchor="middle" x="285" y="-70.7" font-family="Helvetica,sans-Serif" font-size="11.00" fill="#0f172a">Does it match</text>
<text text-anchor="middle" x="285" y="-58.7" font-family="Helvetica,sans-Serif" font-size="11.00" fill="#0f172a">the SHAP evidence?</text>
</g>
<!-- w&#45;&gt;chk -->
<g id="edge1" class="edge">
<title>w&#45;&gt;chk</title>
<path fill="none" stroke="#cbd5e1" stroke-width="1.6" d="M107.15,-67.5C117.45,-67.5 128.71,-67.5 140.39,-67.5"/>
<polygon fill="#cbd5e1" stroke="#cbd5e1" stroke-width="1.6" points="140.72,-69.95 147.72,-67.5 140.72,-65.05 140.72,-69.95"/>
</g>
<!-- ok -->
<g id="node3" class="node">
<title>ok</title>
<path fill="#0d9488" stroke="transparent" d="M616,-138C616,-138 498,-138 498,-138 492,-138 486,-132 486,-126 486,-126 486,-99 486,-99 486,-93 492,-87 498,-87 498,-87 616,-87 616,-87 622,-87 628,-93 628,-99 628,-99 628,-126 628,-126 628,-132 622,-138 616,-138"/>
<text text-anchor="start" x="520.5" y="-117.1" font-family="Helvetica,sans-Serif" font-weight="bold" font-size="13.00" fill="#ffffff">✓ Verified</text>
<text text-anchor="start" x="501" y="-100.5" font-family="Helvetica,sans-Serif" font-size="10.00" fill="#ffffff">badge shown to officer</text>
</g>
<!-- chk&#45;&gt;ok -->
<g id="edge2" class="edge">
<title>chk&#45;&gt;ok</title>
<path fill="none" stroke="#0f766e" stroke-width="1.6" d="M374.41,-82.23C408.01,-87.83 446,-94.17 478.51,-99.59"/>
<polygon fill="#0f766e" stroke="#0f766e" stroke-width="1.6" points="478.49,-102.06 485.79,-100.8 479.29,-97.23 478.49,-102.06"/>
<text text-anchor="middle" x="454" y="-99.5" font-family="Helvetica,sans-Serif" font-size="10.00"> &#160;yes</text>
</g>
<!-- no -->
<g id="node4" class="node">
<title>no</title>
<path fill="#dc2626" stroke="transparent" d="M608.5,-51C608.5,-51 505.5,-51 505.5,-51 499.5,-51 493.5,-45 493.5,-39 493.5,-39 493.5,-12 493.5,-12 493.5,-6 499.5,0 505.5,0 505.5,0 608.5,0 608.5,0 614.5,0 620.5,-6 620.5,-12 620.5,-12 620.5,-39 620.5,-39 620.5,-45 614.5,-51 608.5,-51"/>
<text text-anchor="start" x="509" y="-30.1" font-family="Helvetica,sans-Serif" font-weight="bold" font-size="13.00" fill="#ffffff">Rewrite once</text>
<text text-anchor="start" x="524" y="-13.5" font-family="Helvetica,sans-Serif" font-size="10.00" fill="#ffffff">then re&#45;check</text>
</g>
<!-- chk&#45;&gt;no -->
<g id="edge3" class="edge">
<title>chk&#45;&gt;no</title>
<path fill="none" stroke="#991b1b" stroke-width="1.6" d="M376.28,-53.46C412.06,-47.89 452.57,-41.59 486.05,-36.38"/>
<polygon fill="#991b1b" stroke="#991b1b" stroke-width="1.6" points="486.55,-38.78 493.09,-35.29 485.8,-33.94 486.55,-38.78"/>
<text text-anchor="middle" x="454" y="-45.5" font-family="Helvetica,sans-Serif" font-size="10.00"> &#160;no</text>
</g>
<!-- no&#45;&gt;chk -->
<g id="edge4" class="edge">
<title>no&#45;&gt;chk</title>
<path fill="none" stroke="#991b1b" stroke-width="1.6" stroke-dasharray="5,2" d="M493.46,-31.11C476.71,-32.88 458.63,-35.03 442,-37.5 419.97,-40.77 396.31,-44.97 374.25,-49.17"/>
<polygon fill="#991b1b" stroke="#991b1b" stroke-width="1.6" points="373.56,-46.81 367.15,-50.54 374.48,-51.62 373.56,-46.81"/>
</g>
</g>
</svg>
